<svg id="wave" style="transform:rotate(0deg); transition: 0.3s" viewBox="0 0 1440 270" version="1.1" xmlns="http://www.w3.org/2000/svg">
    <defs>
        <linearGradient id="sw-gradient-0" x1="0" x2="0" y1="1" y2="0">
            <stop stop-color="rgba(243, 106, 62, 1)" offset="0%"></stop>
            <stop stop-color="rgba(255, 179, 11, 1)" offset="100%"></stop>
        </linearGradient>
    </defs>
    <path style="transform:translate(0, 0px); opacity:1" fill="url(#sw-gradient-0)" d="M0,81L10,76.5C20,72,40,63,60,81C80,99,100,144,120,175.5C140,207,160,225,180,211.5C200,198,220,153,240,135C260,117,280,126,300,139.5C320,153,340,171,360,153C380,135,400,81,420,72C440,63,460,99,480,99C500,99,520,63,540,45C560,27,580,27,600,49.5C620,72,640,117,660,112.5C680,108,700,54,720,31.5C740,9,760,18,780,54C800,90,820,153,840,175.5C860,198,880,180,900,171C920,162,940,162,960,175.5C980,189,1000,216,1020,198C1040,180,1060,117,1080,76.5C1100,36,1120,18,1140,45C1160,72,1180,144,1200,162C1220,180,1240,144,1260,108C1280,72,1300,36,1320,40.5C1340,45,1360,90,1380,94.5C1400,99,1420,63,1430,45L1440,27L1440,270L1430,270C1420,270,1400,270,1380,270C1360,270,1340,270,1320,270C1300,270,1280,270,1260,270C1240,270,1220,270,1200,270C1180,270,1160,270,1140,270C1120,270,1100,270,1080,270C1060,270,1040,270,1020,270C1000,270,980,270,960,270C940,270,920,270,900,270C880,270,860,270,840,270C820,270,800,270,780,270C760,270,740,270,720,270C700,270,680,270,660,270C640,270,620,270,600,270C580,270,560,270,540,270C520,270,500,270,480,270C460,270,440,270,420,270C400,270,380,270,360,270C340,270,320,270,300,270C280,270,260,270,240,270C220,270,200,270,180,270C160,270,140,270,120,270C100,270,80,270,60,270C40,270,20,270,10,270L0,270Z"></path>
    <defs>
        <linearGradient id="sw-gradient-1" x1="0" x2="0" y1="1" y2="0">
            <stop stop-color="rgba(120.752, 0, 255, 1)" offset="0%"></stop>
            <stop stop-color="rgba(0, 181.577, 255, 1)" offset="100%"></stop>
        </linearGradient>
    </defs>
    <path style="transform:translate(0, 50px); opacity:0.9" fill="url(#sw-gradient-1)" d="M0,162L10,144C20,126,40,90,60,99C80,108,100,162,120,157.5C140,153,160,90,180,85.5C200,81,220,135,240,166.5C260,198,280,207,300,211.5C320,216,340,216,360,198C380,180,400,144,420,130.5C440,117,460,126,480,126C500,126,520,117,540,126C560,135,580,162,600,148.5C620,135,640,81,660,58.5C680,36,700,45,720,72C740,99,760,144,780,166.5C800,189,820,189,840,189C860,189,880,189,900,166.5C920,144,940,99,960,85.5C980,72,1000,90,1020,112.5C1040,135,1060,162,1080,157.5C1100,153,1120,117,1140,90C1160,63,1180,45,1200,63C1220,81,1240,135,1260,139.5C1280,144,1300,99,1320,108C1340,117,1360,180,1380,171C1400,162,1420,81,1430,40.5L1440,0L1440,270L1430,270C1420,270,1400,270,1380,270C1360,270,1340,270,1320,270C1300,270,1280,270,1260,270C1240,270,1220,270,1200,270C1180,270,1160,270,1140,270C1120,270,1100,270,1080,270C1060,270,1040,270,1020,270C1000,270,980,270,960,270C940,270,920,270,900,270C880,270,860,270,840,270C820,270,800,270,780,270C760,270,740,270,720,270C700,270,680,270,660,270C640,270,620,270,600,270C580,270,560,270,540,270C520,270,500,270,480,270C460,270,440,270,420,270C400,270,380,270,360,270C340,270,320,270,300,270C280,270,260,270,240,270C220,270,200,270,180,270C160,270,140,270,120,270C100,270,80,270,60,270C40,270,20,270,10,270L0,270Z, 100, 108, 99C80, 60, 40"></path>
</svg>